<!-- SVG Sprite Sheet for Component Icons -->
<svg xmlns="http://www.w3.org/2000/svg" style="display: none;">
  
  <!-- Database Icon -->
  <symbol id="icon-database" viewBox="0 0 24 24" fill="none" stroke="currentColor" stroke-width="2">
    <ellipse cx="12" cy="5" rx="9" ry="3"></ellipse>
    <path d="M21 12c0 1.66-4 3-9 3s-9-1.34-9-3"></path>
    <path d="M3 5v14c0 1.66 4 3 9 3s9-1.34 9-3V5"></path>
  </symbol>

  <!-- Cache Icon -->
  <symbol id="icon-cache" viewBox="0 0 24 24" fill="none" stroke="currentColor" stroke-width="2">
    <path d="M12 2v4M12 18v4M4.93 4.93l2.83 2.83M16.24 16.24l2.83 2.83M2 12h4M18 12h4M4.93 19.07l2.83-2.83M16.24 7.76l2.83-2.83"></path>
    <circle cx="12" cy="12" r="3"></circle>
  </symbol>

  <!-- Load Balancer Icon -->
  <symbol id="icon-loadbalancer" viewBox="0 0 24 24" fill="none" stroke="currentColor" stroke-width="2">
    <rect x="2" y="3" width="20" height="4" rx="1"></rect>
    <rect x="2" y="10" width="20" height="4" rx="1"></rect>
    <rect x="2" y="17" width="20" height="4" rx="1"></rect>
    <path d="M12 7v3M12 14v3"></path>
  </symbol>

  <!-- Server Icon -->
  <symbol id="icon-server" viewBox="0 0 24 24" fill="none" stroke="currentColor" stroke-width="2">
    <rect x="2" y="2" width="20" height="8" rx="2" ry="2"></rect>
    <rect x="2" y="14" width="20" height="8" rx="2" ry="2"></rect>
    <line x1="6" y1="6" x2="6.01" y2="6"></line>
    <line x1="6" y1="18" x2="6.01" y2="18"></line>
  </symbol>

  <!-- Cloud Icon -->
  <symbol id="icon-cloud" viewBox="0 0 24 24" fill="none" stroke="currentColor" stroke-width="2">
    <path d="M18 10h-1.26A8 8 0 1 0 9 20h9a5 5 0 0 0 0-10z"></path>
  </symbol>

  <!-- API Gateway Icon -->
  <symbol id="icon-api" viewBox="0 0 24 24" fill="none" stroke="currentColor" stroke-width="2">
    <polygon points="12 2 2 7 12 12 22 7 12 2"></polygon>
    <polyline points="2 17 12 22 22 17"></polyline>
    <polyline points="2 12 12 17 22 12"></polyline>
  </symbol>

  <!-- Queue Icon -->
  <symbol id="icon-queue" viewBox="0 0 24 24" fill="none" stroke="currentColor" stroke-width="2">
    <line x1="3" y1="12" x2="21" y2="12"></line>
    <line x1="3" y1="6" x2="21" y2="6"></line>
    <line x1="3" y1="18" x2="21" y2="18"></line>
    <path d="M18 6l3 3-3 3"></path>
  </symbol>

  <!-- Storage Icon -->
  <symbol id="icon-storage" viewBox="0 0 24 24" fill="none" stroke="currentColor" stroke-width="2">
    <path d="M22 12h-4l-3 9L9 3l-3 9H2"></path>
  </symbol>

  <!-- CDN Icon -->
  <symbol id="icon-cdn" viewBox="0 0 24 24" fill="none" stroke="currentColor" stroke-width="2">
    <circle cx="12" cy="12" r="10"></circle>
    <line x1="2" y1="12" x2="22" y2="12"></line>
    <path d="M12 2a15.3 15.3 0 0 1 4 10 15.3 15.3 0 0 1-4 10 15.3 15.3 0 0 1-4-10 15.3 15.3 0 0 1 4-10z"></path>
  </symbol>

  <!-- Monitoring Icon -->
  <symbol id="icon-monitoring" viewBox="0 0 24 24" fill="none" stroke="currentColor" stroke-width="2">
    <polyline points="22 12 18 12 15 21 9 3 6 12 2 12"></polyline>
  </symbol>

  <!-- Security Icon -->
  <symbol id="icon-security" viewBox="0 0 24 24" fill="none" stroke="currentColor" stroke-width="2">
    <path d="M12 22s8-4 8-10V5l-8-3-8 3v7c0 6 8 10 8 10z"></path>
  </symbol>

  <!-- Analytics Icon -->
  <symbol id="icon-analytics" viewBox="0 0 24 24" fill="none" stroke="currentColor" stroke-width="2">
    <line x1="18" y1="20" x2="18" y2="10"></line>
    <line x1="12" y1="20" x2="12" y2="4"></line>
    <line x1="6" y1="20" x2="6" y2="14"></line>
  </symbol>

  <!-- Container Icon -->
  <symbol id="icon-container" viewBox="0 0 24 24" fill="none" stroke="currentColor" stroke-width="2">
    <path d="M21 16V8a2 2 0 0 0-1-1.73l-7-4a2 2 0 0 0-2 0l-7 4A2 2 0 0 0 3 8v8a2 2 0 0 0 1 1.73l7 4a2 2 0 0 0 2 0l7-4A2 2 0 0 0 21 16z"></path>
    <polyline points="3.27 6.96 12 12.01 20.73 6.96"></polyline>
    <line x1="12" y1="22.08" x2="12" y2="12"></line>
  </symbol>

  <!-- Network Icon -->
  <symbol id="icon-network" viewBox="0 0 24 24" fill="none" stroke="currentColor" stroke-width="2">
    <rect x="16" y="16" width="6" height="6" rx="1"></rect>
    <rect x="2" y="16" width="6" height="6" rx="1"></rect>
    <rect x="9" y="2" width="6" height="6" rx="1"></rect>
    <path d="M12 8v8M5 16V8a3 3 0 0 1 3-3h8a3 3 0 0 1 3 3v8"></path>
  </symbol>

  <!-- Kubernetes Icon -->
  <symbol id="icon-kubernetes" viewBox="0 0 24 24" fill="none" stroke="currentColor" stroke-width="2">
    <polygon points="12 2 22 8.5 22 15.5 12 22 2 15.5 2 8.5 12 2"></polygon>
    <circle cx="12" cy="12" r="3"></circle>
    <line x1="12" y1="9" x2="12" y2="2"></line>
    <line x1="12" y1="15" x2="12" y2="22"></line>
  </symbol>

  <!-- Message Icon -->
  <symbol id="icon-message" viewBox="0 0 24 24" fill="none" stroke="currentColor" stroke-width="2">
    <path d="M21 15a2 2 0 0 1-2 2H7l-4 4V5a2 2 0 0 1 2-2h14a2 2 0 0 1 2 2z"></path>
  </symbol>

  <!-- Default Icon -->
  <symbol id="icon-default" viewBox="0 0 24 24" fill="none" stroke="currentColor" stroke-width="2">
    <rect x="3" y="3" width="18" height="18" rx="2" ry="2"></rect>
    <line x1="9" y1="9" x2="15" y2="15"></line>
    <line x1="15" y1="9" x2="9" y2="15"></line>
  </symbol>

</svg>
